Normalized EMG Linear Envelopes
nRows=235
nColumns=4

endheader
time	 med_gas_r	  soleus_r	 tib_ant_r	
4.125	  0.012414	  0.012000	  0.008502	
4.15827	  0.012787	  0.011977	  0.008436	
4.19153	  0.013043	  0.011980	  0.008284	
4.2248	  0.013206	  0.011997	  0.008087	
4.25806	  0.013278	  0.011994	  0.007926	
4.29133	  0.013218	  0.011959	  0.007816	
4.3246	  0.013050	  0.011918	  0.007753	
4.35786	  0.012818	  0.011917	  0.007748	
4.39113	  0.012525	  0.011962	  0.007761	
4.4244	  0.012186	  0.012036	  0.007778	
4.45766	  0.011843	  0.012147	  0.007794	
4.49093	  0.011533	  0.012259	  0.007771	
4.52419	  0.011286	  0.012342	  0.007700	
4.55746	  0.011140	  0.012412	  0.007597	
4.59073	  0.011138	  0.012507	  0.007484	
4.62399	  0.011268	  0.012657	  0.007378	
4.65726	  0.011472	  0.012878	  0.007279	
4.69052	  0.011659	  0.013112	  0.007191	
4.72379	  0.011733	  0.013316	  0.007121	
4.75706	  0.011687	  0.013469	  0.007064	
4.79032	  0.011538	  0.013505	  0.007014	
4.82359	  0.011324	  0.013394	  0.006985	
4.85685	  0.011115	  0.013188	  0.006960	
4.89012	  0.010966	  0.012956	  0.006919	
4.92339	  0.010917	  0.012764	  0.006880	
4.95665	  0.010989	  0.012649	  0.006864	
4.98992	  0.011165	  0.012591	  0.006853	
5.02319	  0.011405	  0.012550	  0.006818	
5.05645	  0.011652	  0.012530	  0.006772	
5.08972	  0.011875	  0.012579	  0.006746	
5.12298	  0.012025	  0.012667	  0.006745	
5.15625	  0.012096	  0.012722	  0.006748	
5.18952	  0.012109	  0.012732	  0.006713	
5.22278	  0.012070	  0.012749	  0.006552	
5.25605	  0.011968	  0.012760	  0.006166	
5.28931	  0.011814	  0.012691	  0.005507	
5.32258	  0.011634	  0.012445	  0.004556	
5.35585	  0.011469	  0.012023	  0.003381	
5.38911	  0.011347	  0.011539	  0.002175	
5.42238	  0.011256	  0.011122	  0.001244	
5.45565	  0.011207	  0.010891	  0.001042	
5.48891	  0.011227	  0.010923	  0.002172	
5.52218	  0.011351	  0.011325	  0.005399	
5.55544	  0.011646	  0.012310	  0.011626	
5.58871	  0.012191	  0.014086	  0.021780	
5.62198	  0.013041	  0.016834	  0.036661	
5.65524	  0.014276	  0.020716	  0.056697	
5.68851	  0.015991	  0.025833	  0.081835	
5.72177	  0.018246	  0.032204	  0.111393	
5.75504	  0.021017	  0.039690	  0.144550	
5.78831	  0.024216	  0.048032	  0.181129	
5.82157	  0.027716	  0.056843	  0.221199	
5.85484	  0.031312	  0.065863	  0.264055	
5.8881	  0.034757	  0.074703	  0.308051	
5.92137	  0.038036	  0.083092	  0.352435	
5.95464	  0.041096	  0.090959	  0.395665	
5.9879	  0.043740	  0.098050	  0.435094	
6.02117	  0.045981	  0.104502	  0.467132	
6.05444	  0.047972	  0.110428	  0.490067	
6.0877	  0.049672	  0.115700	  0.503709	
6.12097	  0.050975	  0.120080	  0.507139	
6.15423	  0.051791	  0.123147	  0.501905	
6.1875	  0.052272	  0.124888	  0.493042	
6.22077	  0.052685	  0.125841	  0.485216	
6.25403	  0.053149	  0.126501	  0.480662	
6.2873	  0.053753	  0.127394	  0.479640	
6.32056	  0.054386	  0.128223	  0.481252	
6.35383	  0.055100	  0.128535	  0.485798	
6.3871	  0.056081	  0.128842	  0.493265	
6.42036	  0.057303	  0.129670	  0.503773	
6.45363	  0.058847	  0.131255	  0.518157	
6.4869	  0.060692	  0.134298	  0.536538	
6.52016	  0.062444	  0.138883	  0.558108	
6.55343	  0.063895	  0.144811	  0.582240	
6.58669	  0.065128	  0.151689	  0.607686	
6.61996	  0.066012	  0.159062	  0.631525	
6.65323	  0.066308	  0.166237	  0.651827	
6.68649	  0.065773	  0.172627	  0.667619	
6.71976	  0.064502	  0.177310	  0.679340	
6.75302	  0.062794	  0.179146	  0.686811	
6.78629	  0.060994	  0.177773	  0.691781	
6.81956	  0.059543	  0.174543	  0.694244	
6.85282	  0.058713	  0.170909	  0.689840	
6.88609	  0.058481	  0.167748	  0.674817	
6.91935	  0.058979	  0.165942	  0.652687	
6.95262	  0.060068	  0.166320	  0.628302	
6.98589	  0.061293	  0.168720	  0.603457	
7.01915	  0.062123	  0.172455	  0.579961	
7.05242	  0.062101	  0.175939	  0.561316	
7.08569	  0.061020	  0.178377	  0.547556	
7.11895	  0.058901	  0.179292	  0.537958	
7.15222	  0.056214	  0.179814	  0.533190	
7.18548	  0.053735	  0.180412	  0.533549	
7.21875	  0.052071	  0.181173	  0.540902	
7.25202	  0.051596	  0.182585	  0.555607	
7.28528	  0.052398	  0.185381	  0.576049	
7.31855	  0.054338	  0.189379	  0.599746	
7.35181	  0.056944	  0.193149	  0.622337	
7.38508	  0.059637	  0.195372	  0.641035	
7.41835	  0.062409	  0.196395	  0.656590	
7.45161	  0.065278	  0.197290	  0.669585	
7.48488	  0.067890	  0.198430	  0.679900	
7.51815	  0.069813	  0.199585	  0.687930	
7.55141	  0.071191	  0.201519	  0.695015	
7.58468	  0.072250	  0.204622	  0.699491	
7.61794	  0.072932	  0.208159	  0.699629	
7.65121	  0.073269	  0.212016	  0.696073	
7.68448	  0.073294	  0.215988	  0.689750	
7.71774	  0.072844	  0.219631	  0.681845	
7.75101	  0.071879	  0.221447	  0.673701	
7.78427	  0.070505	  0.220000	  0.664891	
7.81754	  0.068865	  0.215759	  0.652899	
7.85081	  0.067116	  0.209209	  0.635434	
7.88407	  0.065492	  0.201752	  0.612765	
7.91734	  0.064107	  0.195117	  0.586532	
7.9506	  0.063041	  0.190299	  0.559427	
7.98387	  0.062297	  0.187352	  0.535100	
8.01714	  0.061958	  0.185372	  0.516952	
8.0504	  0.062025	  0.183735	  0.507136	
8.08367	  0.062302	  0.181885	  0.506006	
8.11694	  0.062718	  0.180164	  0.513431	
8.1502	  0.063199	  0.179244	  0.528295	
8.18347	  0.063574	  0.178952	  0.547362	
8.21673	  0.063679	  0.178234	  0.567604	
8.25	  0.063324	  0.175914	  0.587595	
8.28327	  0.062715	  0.173310	  0.606622	
8.31653	  0.062149	  0.172345	  0.624143	
8.3498	  0.061795	  0.173871	  0.639256	
8.38306	  0.061880	  0.177969	  0.652591	
8.41633	  0.062753	  0.184011	  0.664693	
8.4496	  0.064597	  0.190221	  0.674799	
8.48286	  0.067146	  0.195089	  0.683719	
8.51613	  0.070297	  0.199112	  0.693710	
8.5494	  0.073921	  0.202853	  0.702939	
8.58266	  0.077769	  0.206354	  0.708415	
8.61593	  0.081156	  0.209452	  0.708338	
8.64919	  0.083448	  0.210924	  0.703532	
8.68246	  0.084622	  0.210238	  0.696120	
8.71573	  0.084862	  0.208874	  0.687767	
8.74899	  0.084213	  0.208220	  0.682107	
8.78226	  0.083047	  0.209620	  0.681033	
8.81552	  0.081687	  0.213293	  0.683991	
8.84879	  0.080157	  0.217654	  0.688610	
8.88206	  0.078498	  0.222191	  0.694646	
8.91532	  0.077030	  0.226923	  0.703776	
8.94859	  0.075912	  0.230923	  0.713936	
8.98185	  0.075142	  0.233471	  0.721248	
9.01512	  0.074898	  0.234840	  0.723480	
9.04839	  0.075406	  0.235187	  0.721875	
9.08165	  0.076519	  0.235200	  0.716997	
9.11492	  0.077863	  0.235258	  0.709928	
9.14819	  0.079032	  0.234550	  0.701386	
9.18145	  0.079597	  0.232498	  0.692865	
9.21472	  0.079157	  0.228844	  0.684594	
9.24798	  0.077640	  0.224091	  0.675259	
9.28125	  0.075521	  0.219445	  0.664368	
9.31452	  0.073437	  0.216598	  0.652565	
9.34778	  0.071560	  0.215679	  0.641404	
9.38105	  0.069873	  0.215391	  0.634401	
9.41431	  0.068336	  0.214905	  0.632436	
9.44758	  0.066874	  0.214681	  0.632221	
9.48085	  0.065077	  0.214648	  0.629196	
9.51411	  0.062676	  0.213428	  0.621644	
9.54738	  0.059838	  0.209832	  0.611594	
9.58065	  0.057108	  0.203280	  0.601483	
9.61391	  0.054945	  0.194563	  0.593673	
9.64718	  0.053649	  0.186044	  0.588458	
9.68044	  0.053240	  0.179335	  0.586718	
9.71371	  0.053621	  0.175556	  0.589582	
9.74698	  0.054477	  0.174510	  0.595765	
9.78024	  0.055601	  0.175295	  0.603035	
9.81351	  0.057021	  0.177548	  0.610512	
9.84677	  0.058588	  0.180555	  0.618656	
9.88004	  0.059864	  0.183248	  0.627759	
9.91331	  0.060699	  0.184777	  0.637370	
9.94657	  0.061232	  0.184989	  0.646356	
9.97984	  0.061633	  0.184108	  0.652465	
10.0131	  0.061804	  0.182026	  0.656121	
10.0464	  0.061477	  0.178509	  0.657748	
10.0796	  0.060386	  0.173183	  0.653175	
10.1129	  0.058459	  0.165948	  0.636445	
10.1462	  0.055478	  0.157264	  0.605359	
10.1794	  0.051686	  0.148437	  0.566461	
10.2127	  0.047706	  0.140198	  0.528811	
10.246	  0.044253	  0.133100	  0.498607	
10.2792	  0.041912	  0.127841	  0.477162	
10.3125	  0.040785	  0.125204	  0.465564	
10.3458	  0.040672	  0.125450	  0.465668	
10.379	  0.041252	  0.128066	  0.477647	
10.4123	  0.042282	  0.132228	  0.499029	
10.4456	  0.043687	  0.137683	  0.525562	
10.4788	  0.045426	  0.144480	  0.553457	
10.5121	  0.047407	  0.152340	  0.578755	
10.5454	  0.049444	  0.160369	  0.595560	
10.5786	  0.051236	  0.167513	  0.601048	
10.6119	  0.052599	  0.172924	  0.596726	
10.6452	  0.053292	  0.175784	  0.584714	
10.6784	  0.053164	  0.175675	  0.566942	
10.7117	  0.052143	  0.172329	  0.542283	
10.745	  0.050198	  0.165048	  0.510193	
10.7782	  0.047435	  0.153663	  0.471490	
10.8115	  0.044107	  0.140019	  0.429298	
10.8448	  0.040429	  0.125996	  0.385349	
10.878	  0.036565	  0.112795	  0.341944	
10.9113	  0.032603	  0.100719	  0.301327	
10.9446	  0.028831	  0.090083	  0.264875	
10.9778	  0.025348	  0.080481	  0.231351	
11.0111	  0.022098	  0.070939	  0.197799	
11.0444	  0.019141	  0.061401	  0.163787	
11.0776	  0.016586	  0.052381	  0.131277	
11.1109	  0.014466	  0.044062	  0.102492	
11.1442	  0.012850	  0.036866	  0.079736	
11.1774	  0.011708	  0.031117	  0.064262	
11.2107	  0.010990	  0.026853	  0.055843	
11.244	  0.010649	  0.023929	  0.052834	
11.2772	  0.010587	  0.021885	  0.052261	
11.3105	  0.010664	  0.020107	  0.050982	
11.3437	  0.010829	  0.018491	  0.048369	
11.377	  0.011059	  0.017158	  0.045364	
11.4103	  0.011299	  0.016110	  0.042445	
11.4435	  0.011524	  0.015334	  0.039549	
11.4768	  0.011728	  0.014802	  0.036277	
11.5101	  0.011911	  0.014489	  0.032431	
11.5433	  0.012099	  0.014406	  0.028353	
11.5766	  0.012287	  0.014576	  0.024592	
11.6099	  0.012459	  0.014987	  0.021577	
11.6431	  0.012607	  0.015582	  0.019605	
11.6764	  0.012781	  0.016320	  0.018838	
11.7097	  0.013046	  0.017107	  0.019099	
11.7429	  0.013397	  0.017833	  0.020115	
11.7762	  0.013806	  0.018388	  0.021508	
11.8095	  0.014193	  0.018753	  0.022633	
11.8427	  0.014427	  0.018948	  0.023069	
11.876	  0.014453	  0.018921	  0.022917	
11.9093	  0.014268	  0.018635	  0.022304	
